# xmcd CD database file
#
# Track frame offsets:
#	150
#	17980
#	37124
#	54824
#	67005
#	83561
#	104317
#	128125
#	143911
#	167018
#	184015
#	211704
#	232946
#	246718
#	260171
#
# Disc length: 3745 seconds
#
# Revision: 2
# Processed by: cddbd v1.5.2PL0 Copyright (c) Steve Scherf et al.
# Submitted via: CDex 1.51
#
DISCID=d20e9f0f
DTITLE=Various Artist - K-CC-01
DYEAR=1900
DGENRE=Blues
TTITLE0=Dappy Ft Brian May - Rock Star (explicit)
TTITLE1=Matt Cardle - Amazing
TTITLE2=Various Artist - Perfect Day
TTITLE3=Bruno Mars - Runaway Baby
TTITLE4=Roy Orbison - Medley-1
TTITLE5=Roy Orbison - Medley-2
TTITLE6=Bee Gees The - Medley
TTITLE7=Bee Gees The - To Love Somebody
TTITLE8=Bee Gees - Tragedy
TTITLE9=Blues Bros - She Caught The Katy
TTITLE10=Eagles The - Medley
TTITLE11=Brenda Lee - Medley (4+6+12+1)
TTITLE12=Modern Romance - Best Years Of Our Life
TTITLE13=Smiths The - This Charming Man
TTITLE14=Chris Rea - Let's Dance
EXTD=
EXTT0=
EXTT1=
EXTT2=
EXTT3=
EXTT4=
EXTT5=
EXTT6=
EXTT7=
EXTT8=
EXTT9=
EXTT10=
EXTT11=
EXTT12=
EXTT13=
EXTT14=
PLAYORDER=
